#!OML:ASF X:\für Bonn\!DataBase\2005_08_10_Bjorn_Final\c3d\bjorn.ASF
:FULLY-SPECIFIED
:DEGREES
125
root -1.54901 18.6801 14.632 -182.773 23.1801 177.366
lowerback -10.0155 4.02051 0.939394
upperback 6.03077 5.85075 -2.92278
thorax 12.6438 3.10604 -2.47701
lowerneck -7.51185 2.48159 4.84134
upperneck 4.89834 3.2215 -5.58
head 3.13101 1.50448 -2.54788
rclavicle -8.5378e-014 4.13472e-014
rhumerus 50.7469 23.3726 -74.1905
rradius 85.5867
rwrist 34.8643
rhand -56.4017 13.3975
rfingers 7.12502
rthumb -28.7201 -14.414
lclavicle -8.5378e-014 4.13472e-014
lhumerus 34.6282 -27.2792 83.2971
lradius 86.9222
lwrist 47.2516
lhand -49.8375 -6.02634
lfingers 7.12502
lthumb -22.4331 22.6909
rfemur 540.574 -166.089 -527.349
rtibia 30.7231
rfoot -26.6819 13.2524
rtoes -17.0948
lfemur 339.376 1.37718 349.259
ltibia 30.855
lfoot -3.46217 -6.20203
ltoes -10.8671
126
root -1.54038 18.6839 14.6405 -182.672 23.4227 177.28
lowerback -10.0619 4.07602 0.887886
upperback 5.94351 5.9297 -2.95875
thorax 12.5758 3.13792 -2.47031
lowerneck -7.49918 2.48462 4.74783
upperneck 4.85896 3.22731 -5.49131
head 3.11006 1.50858 -2.49933
rclavicle 4.97459e-014 2.06736e-014
rhumerus 51.2311 23.2522 -74.2901
rradius 84.3279
rwrist 34.9162
rhand -56.2134 13.2361
rfingers 7.12502
rthumb -28.5402 -14.6058
lclavicle 4.97459e-014 2.06736e-014
lhumerus 35.0917 -26.976 83.2412
lradius 86.1793
lwrist 47.4689
lhand -49.7224 -6.1676
lfingers 7.12502
lthumb -22.3227 22.5629
rfemur 540.336 -165.808 -527.48
rtibia 30.7972
rfoot -26.5659 13.8865
rtoes -16.6582
lfemur 339.425 1.20997 349.266
ltibia 30.6284
lfoot -3.5425 -5.6787
ltoes -11.4188
127
root -1.53122 18.6879 14.6501 -182.569 23.704 177.194
lowerback -10.0798 4.15473 0.856222
upperback 5.83544 6.04064 -3.02847
thorax 12.4751 3.18904 -2.50703
lowerneck -7.40691 2.47888 4.76558
upperneck 4.75581 3.21395 -5.45419
head 3.05561 1.50469 -2.49002
rclavicle -1.46107e-014 3.97569e-015
rhumerus 51.6945 23.1041 -74.4577
rradius 83.0203
rwrist 34.9541
rhand -55.8932 12.9402
rfingers 7.12502
rthumb -28.2342 -14.9527
lclavicle -1.46107e-014 3.97569e-015
lhumerus 35.5202 -26.6687 83.1846
lradius 85.354
lwrist 47.7432
lhand -49.7339 -6.31226
lfingers 7.12502
lthumb -22.3337 22.4169
rfemur 540.088 -165.55 -527.604
rtibia 30.8655
rfoot -26.423 14.5249
rtoes -16.2071
lfemur 339.472 1.03322 349.284
ltibia 30.4261
lfoot -3.63737 -5.12324
ltoes -11.8513
128
root -1.52248 18.6919 14.6591 -182.45 23.9719 177.125
lowerback -10.1108 4.21744 0.82603
upperback 5.72956 6.12593 -3.07558
thorax 12.3808 3.22631 -2.52458
lowerneck -7.31568 2.48878 4.72959
upperneck 4.65978 3.22676 -5.40316
head 3.00352 1.5133 -2.46462
rclavicle -5.30755e-014 -1.59028e-015
rhumerus 52.1764 23.0032 -74.6075
rradius 81.6917
rwrist 34.981
rhand -55.4809 12.7874
rfingers 7.12502
rthumb -27.8401 -15.1699
lclavicle -5.30755e-014 -1.59028e-015
lhumerus 35.9334 -26.2992 83.2124
lradius 84.4442
lwrist 47.9585
lhand -49.7687 -6.44809
lfingers 7.12502
lthumb -22.3671 22.2771
rfemur 539.839 -165.422 -527.67
rtibia 30.9242
rfoot -26.31 15.0295
rtoes -15.6785
lfemur 339.496 0.85258 349.309
ltibia 30.2465
lfoot -3.74114 -4.56455
ltoes -12.4018
129
root -1.51326 18.6961 14.6685 -182.345 24.2923 177.058
lowerback -10.1153 4.30769 0.80707
upperback 5.62348 6.24925 -3.13577
thorax 12.276 3.28409 -2.5562
lowerneck -7.21605 2.48674 4.79443
upperneck 4.56351 3.21872 -5.42173
head 2.95356 1.5113 -2.48299
rclavicle 7.37491e-014 -2.78299e-014
rhumerus 52.6358 22.8709 -74.7605
rradius 80.3497
rwrist 34.9172
rhand -54.9531 12.6748
rfingers 7.12502
rthumb -27.3353 -15.3631
lclavicle 7.37491e-014 -2.78299e-014
lhumerus 36.359 -25.9536 83.2179
lradius 83.4687
lwrist 48.0264
lhand -49.8144 -6.32956
lfingers 7.12502
lthumb -22.4109 22.3904
rfemur 539.598 -165.409 -527.708
rtibia 30.9689
rfoot -26.216 15.4608
rtoes -15.2748
lfemur 339.525 0.756955 349.337
ltibia 30.0962
lfoot -3.84411 -4.03416
ltoes -13.0379
130
root -1.50534 18.7018 14.6786 -182.231 24.595 177.003
lowerback -10.1007 4.38291 0.797083
upperback 5.49878 6.34551 -3.17803
thorax 12.1354 3.32794 -2.58134
lowerneck -7.03599 2.4965 4.79933
upperneck 4.44072 3.23308 -5.41187
head 2.87821 1.52144 -2.47933
rclavicle 1.36664e-014 6.04305e-014
rhumerus 53.0459 22.7789 -74.9497
rradius 79.0275
rwrist 34.9407
rhand -54.3826 12.5901
rfingers 7.12502
rthumb -26.7895 -15.5327
lclavicle 1.36664e-014 6.04305e-014
lhumerus 36.6663 -25.5634 83.3089
lradius 82.4679
lwrist 48.0836
lhand -49.7768 -6.45887
lfingers 7.12502
lthumb -22.3749 22.2654
rfemur 539.36 -165.438 -527.716
rtibia 30.9967
rfoot -26.1656 15.7975
rtoes -15.0979
lfemur 339.532 0.614936 349.369
ltibia 29.9744
lfoot -3.97546 -3.47682
ltoes -13.6541
